# xmcd
#
# Track frame offsets:
# 150
# 23783
# 40125
# 88409
# 132950
# 153653
# 173979
# 198882
# 226166
# 244007
# 270563
# 291133
# 314010
#
# Disc length: 4365 seconds
#
#
# Revision: 0
# Processed by: cddbd v1.5.2PL0 Copyright (c) Steve Scherf et al.
# Submitted via: FreeRIP 2.951 
#
DISCID=b4110b0d
DTITLE=Miles Davis - Miles Davis - Miles Ultimate
DYEAR=2016
DGENRE=Blues
TTITLE0=Tutu
TTITLE1=Time After Time
TTITLE2=Jean Piere
TTITLE3=Fat Time
TTITLE4=Perfect Way
TTITLE5=Human Nature
TTITLE6=Back Seat Betty (Excerpt)
TTITLE7=White
TTITLE8=Mystery
TTITLE9=U ´n´ I
TTITLE10=Freaky Deaky
TTITLE11=In a Silent Way (DJ Cam Remix)
TTITLE12=Freedom Jazz Dance (Evolution of the Groove) (Remix Version)
EXTD=
EXTT0=
EXTT1=
EXTT2=
EXTT3=
EXTT4=
EXTT5=
EXTT6=
EXTT7=
EXTT8=
EXTT9=
EXTT10=
EXTT11=
EXTT12=
PLAYORDER=
